/* XPM */
static char *_1ab82b867b74373fad8e210da80da3fJ3SnGFCu7ZUHoEan[] = {
/* columns rows colors chars-per-pixel */
"32 32 11 1 ",
"  c None",
". c black",
"X c #732930",
"o c #EC4700",
"O c #FAB40B",
"+ c #EB8931",
"@ c #342A97",
"# c #9964F9",
"$ c #31A2F2",
"% c #F4B990",
"& c white",
/* pixels */
"                                ",
"                                ",
"                                ",
"                                ",
"                                ",
"                                ",
"                                ",
"         ............           ",
"        .oooooOOOOOOO.          ",
"        .oo.oOOOOOOOOO.         ",
"         ..oOOOOOOOOOOO.        ",
"         .ooOOOOOOOOOOO.        ",
"         .ooOOoooooooOO.        ",
"         .ooO+%.%%%.%+O.        ",
"         .ooO+%.+++.%+O.        ",
"         .ooO+%%%%%%%+O.        ",
"         .ooO+%%%%%%%+O.        ",
"          .oO..+++++...         ",
"          ....#@#####@.         ",
"         ..###.@######..        ",
"       ...@##..@...@#.@.        ",
"     ...%%@......X.@#.@.        ",
"   .....%%.........@.....       ",
"  ...##.....&&&...oO..%%.       ",
"  .@##@@..&&&$$$$.@@..%%.       ",
"  ..@@@@.&&&$$$$........        ",
"   .....&&&$$$$.......          ",
"       .&&$$$$..  .X.           ",
"       .&$$$$...  .X.           ",
"       .$$$$..                  ",
"       ......                   ",
"                                "
};
